<svg width="70" height="54" viewBox="0 0 70 54" fill="none" xmlns="http://www.w3.org/2000/svg">
<path d="M3.49817 53.8865H59.4689C61.4007 53.8865 62.967 52.3201 62.967 50.3883V45.7241C62.967 43.7922 61.4007 42.2259 59.4689 42.2259H58.3028V13.1468L64.9262 6.87241C66.4635 7.63023 68.3242 7.17018 69.3302 5.78151C70.3369 4.3934 70.1957 2.48205 68.9966 1.25678C67.7975 0.031505 65.8901 -0.151261 64.4798 0.824059C63.0701 1.79995 62.569 3.64981 63.2933 5.2036L58.3028 9.93444V7.2442C58.3028 5.31235 56.7365 3.74603 54.8046 3.74603H8.16239C6.23054 3.74603 4.66422 5.31235 4.66422 7.2442V42.2259H3.49817C1.56632 42.2259 0 43.7922 0 45.7241V50.3883C0 52.3201 1.56632 53.8865 3.49817 53.8865ZM66.4652 2.57998C67.1091 2.57998 67.6312 3.10208 67.6312 3.74603C67.6312 4.38998 67.1091 4.91209 66.4652 4.91209C65.8212 4.91209 65.2991 4.38998 65.2991 3.74603C65.2991 3.10208 65.8212 2.57998 66.4652 2.57998ZM6.99634 7.2442C6.99634 6.60025 7.51844 6.07814 8.16239 6.07814H54.8046C55.4486 6.07814 55.9707 6.60025 55.9707 7.2442V12.1413L53.6386 14.3573V9.57631C53.6386 8.93236 53.1165 8.41026 52.4725 8.41026H10.4945C9.85055 8.41026 9.32845 8.93236 9.32845 9.57631V38.7277C9.32845 39.3717 9.85055 39.8938 10.4945 39.8938H52.4725C53.1165 39.8938 53.6386 39.3717 53.6386 38.7277V17.5651L55.9707 15.3554V42.2259H6.99634V7.2442ZM17.4908 22.4029C15.9131 22.3984 14.5279 23.4494 14.1083 24.9702C13.6886 26.491 14.3383 28.104 15.6951 28.909C17.0513 29.7141 18.7793 29.512 19.9129 28.4148L23.9662 30.4486C24.4371 30.6843 25.0081 30.5739 25.3583 30.1804L33.9745 20.487L42.4443 26.8337C42.8987 27.1742 43.5329 27.1378 43.9452 26.7477L51.3065 19.7748V37.5617H11.6606V10.7424H51.3065V16.5618L43.0564 24.3746L34.5154 17.9716C34.0303 17.6083 33.3476 17.6766 32.9445 18.1293L24.2099 27.9571L20.9446 26.3241C20.9685 26.1841 20.9833 26.0429 20.989 25.9011C20.989 23.9693 19.4227 22.4029 17.4908 22.4029ZM18.6569 25.9011C18.6569 26.5451 18.1348 27.0672 17.4908 27.0672C16.8469 27.0672 16.3248 26.5451 16.3248 25.9011C16.3248 25.2572 16.8469 24.735 17.4908 24.735C18.1348 24.735 18.6569 25.2572 18.6569 25.9011ZM25.6532 44.558H37.3138V45.7241C37.3138 46.368 36.7917 46.8901 36.1477 46.8901H26.8193C26.1753 46.8901 25.6532 46.368 25.6532 45.7241V44.558ZM2.33211 45.7241C2.33211 45.0801 2.85422 44.558 3.49817 44.558H23.3211V45.7241C23.3211 47.6559 24.8874 49.2222 26.8193 49.2222H36.1477C38.0796 49.2222 39.6459 47.6559 39.6459 45.7241V44.558H59.4689C60.1128 44.558 60.6349 45.0801 60.6349 45.7241V50.3883C60.6349 51.0322 60.1128 51.5543 59.4689 51.5543H3.49817C2.85422 51.5543 2.33211 51.0322 2.33211 50.3883V45.7241Z" fill="#212121"/>
</svg>
